<?xml version="1.0" encoding="UTF-8" standalone="no"?>
<!DOCTYPE svg PUBLIC "-//W3C//DTD SVG 1.1//EN"
 "http://www.w3.org/Graphics/SVG/1.1/DTD/svg11.dtd">
<!-- Generated by graphviz version 3.0.0 (0)
 -->
<!-- Title: project Pages: 1 -->
<svg width="340pt" height="176pt"
 viewBox="0.00 0.00 339.74 176.00" xmlns="http://www.w3.org/2000/svg" xmlns:xlink="http://www.w3.org/1999/xlink">
<g id="graph0" class="graph" transform="scale(1 1) rotate(0) translate(4 172)">
<title>project</title>
<polygon fill="white" stroke="transparent" points="-4,4 -4,-172 335.74,-172 335.74,4 -4,4"/>
<!-- domain -->
<g id="node1" class="node">
<title>domain</title>
<ellipse fill="none" stroke="black" cx="168.34" cy="-150" rx="44.69" ry="18"/>
<text text-anchor="middle" x="168.34" y="-146.3" font-family="Times,serif" font-size="14.00">domain</text>
</g>
<!-- persistence -->
<g id="node2" class="node">
<title>persistence</title>
<ellipse fill="none" stroke="black" cx="64.34" cy="-62" rx="64.19" ry="18"/>
<text text-anchor="middle" x="64.34" y="-58.3" font-family="Times,serif" font-size="14.00">persistence</text>
</g>
<!-- output&#45;headers -->
<g id="node3" class="node">
<title>output&#45;headers</title>
<ellipse fill="none" stroke="black" cx="81.34" cy="-106" rx="81.49" ry="18"/>
<text text-anchor="middle" x="81.34" y="-102.3" font-family="Times,serif" font-size="14.00">output&#45;headers</text>
</g>
<!-- persistence&#45;&gt;output&#45;headers -->
<g id="edge8" class="edge">
<title>persistence&#45;&gt;output&#45;headers</title>
<path fill="none" stroke="black" d="M71.26,-80.08C71.32,-80.24 71.39,-80.4 71.45,-80.56"/>
<polygon fill="black" stroke="black" points="67.38,-79.84 74.38,-87.8 73.87,-77.21 67.38,-79.84"/>
</g>
<!-- output&#45;headers&#45;&gt;domain -->
<g id="edge3" class="edge">
<title>output&#45;headers&#45;&gt;domain</title>
<path fill="none" stroke="black" d="M113.74,-122.64C119.57,-125.46 125.69,-128.41 131.64,-131.28"/>
<polygon fill="black" stroke="black" points="130.24,-134.49 140.77,-135.69 133.29,-128.19 130.24,-134.49"/>
</g>
<!-- core -->
<g id="node4" class="node">
<title>core</title>
<ellipse fill="none" stroke="black" cx="177.34" cy="-62" rx="30.59" ry="18"/>
<text text-anchor="middle" x="177.34" y="-58.3" font-family="Times,serif" font-size="14.00">core</text>
</g>
<!-- core&#45;&gt;output&#45;headers -->
<g id="edge7" class="edge">
<title>core&#45;&gt;output&#45;headers</title>
<path fill="none" stroke="black" d="M153.61,-73.38C145.2,-77.06 135.44,-81.33 125.86,-85.52"/>
<polygon fill="black" stroke="black" points="124.17,-82.44 116.41,-89.66 126.97,-88.86 124.17,-82.44"/>
</g>
<!-- input&#45;headers -->
<g id="node5" class="node">
<title>input&#45;headers</title>
<ellipse fill="none" stroke="black" cx="256.34" cy="-106" rx="75.29" ry="18"/>
<text text-anchor="middle" x="256.34" y="-102.3" font-family="Times,serif" font-size="14.00">input&#45;headers</text>
</g>
<!-- core&#45;&gt;input&#45;headers -->
<g id="edge2" class="edge">
<title>core&#45;&gt;input&#45;headers</title>
<path fill="none" stroke="black" d="M199.35,-74.7C205.06,-77.73 211.37,-81.09 217.66,-84.43"/>
<polygon fill="black" stroke="black" points="216.31,-87.68 226.78,-89.28 219.59,-81.5 216.31,-87.68"/>
</g>
<!-- input&#45;headers&#45;&gt;domain -->
<g id="edge5" class="edge">
<title>input&#45;headers&#45;&gt;domain</title>
<path fill="none" stroke="black" d="M224.08,-122.4C217.88,-125.36 211.35,-128.47 205.03,-131.49"/>
<polygon fill="black" stroke="black" points="203.49,-128.35 195.97,-135.81 206.51,-134.66 203.49,-128.35"/>
</g>
<!-- main -->
<g id="node6" class="node">
<title>main</title>
<ellipse fill="none" stroke="black" cx="177.34" cy="-18" rx="33.6" ry="18"/>
<text text-anchor="middle" x="177.34" y="-14.3" font-family="Times,serif" font-size="14.00">main</text>
</g>
<!-- main&#45;&gt;persistence -->
<g id="edge1" class="edge">
<title>main&#45;&gt;persistence</title>
<path fill="none" stroke="black" d="M150.28,-29.06C138.51,-33.43 124.38,-38.69 111,-43.66"/>
<polygon fill="black" stroke="black" points="109.6,-40.45 101.44,-47.21 112.04,-47.01 109.6,-40.45"/>
</g>
<!-- main&#45;&gt;core -->
<g id="edge6" class="edge">
<title>main&#45;&gt;core</title>
<path fill="none" stroke="black" d="M177.34,-36.08C177.34,-36.24 177.34,-36.4 177.34,-36.56"/>
<polygon fill="black" stroke="black" points="173.84,-33.8 177.34,-43.8 180.84,-33.8 173.84,-33.8"/>
</g>
<!-- delivery -->
<g id="node7" class="node">
<title>delivery</title>
<ellipse fill="none" stroke="black" cx="274.34" cy="-62" rx="48.19" ry="18"/>
<text text-anchor="middle" x="274.34" y="-58.3" font-family="Times,serif" font-size="14.00">delivery</text>
</g>
<!-- main&#45;&gt;delivery -->
<g id="edge4" class="edge">
<title>main&#45;&gt;delivery</title>
<path fill="none" stroke="black" d="M202.83,-30.04C212.64,-34.28 224.09,-39.24 234.91,-43.93"/>
<polygon fill="black" stroke="black" points="233.64,-47.19 244.21,-47.95 236.42,-40.76 233.64,-47.19"/>
</g>
<!-- delivery&#45;&gt;input&#45;headers -->
<g id="edge9" class="edge">
<title>delivery&#45;&gt;input&#45;headers</title>
<path fill="none" stroke="black" d="M267.02,-80.08C266.95,-80.25 266.88,-80.41 266.81,-80.58"/>
<polygon fill="black" stroke="black" points="264.32,-77.5 263.6,-88.07 270.76,-80.26 264.32,-77.5"/>
</g>
</g>
</svg>
