<?xml version="1.0" encoding="UTF-8" standalone="no"?>
<!DOCTYPE svg PUBLIC "-//W3C//DTD SVG 1.1//EN"
 "http://www.w3.org/Graphics/SVG/1.1/DTD/svg11.dtd">
<!-- Generated by graphviz version 3.0.0 (0)
 -->
<!-- Title: project Pages: 1 -->
<svg width="330pt" height="132pt"
 viewBox="0.00 0.00 330.44 132.00" xmlns="http://www.w3.org/2000/svg" xmlns:xlink="http://www.w3.org/1999/xlink">
<g id="graph0" class="graph" transform="scale(1 1) rotate(0) translate(4 128)">
<title>project</title>
<polygon fill="white" stroke="transparent" points="-4,4 -4,-128 326.44,-128 326.44,4 -4,4"/>
<!-- persistence -->
<g id="node1" class="node">
<title>persistence</title>
<ellipse fill="none" stroke="black" cx="64.34" cy="-62" rx="64.19" ry="18"/>
<text text-anchor="middle" x="64.34" y="-58.3" font-family="Times,serif" font-size="14.00">persistence</text>
</g>
<!-- core&#45;headers -->
<g id="node3" class="node">
<title>core&#45;headers</title>
<ellipse fill="none" stroke="black" cx="177.34" cy="-106" rx="70.69" ry="18"/>
<text text-anchor="middle" x="177.34" y="-102.3" font-family="Times,serif" font-size="14.00">core&#45;headers</text>
</g>
<!-- persistence&#45;&gt;core&#45;headers -->
<g id="edge4" class="edge">
<title>persistence&#45;&gt;core&#45;headers</title>
<path fill="none" stroke="black" d="M101.34,-76.75C110.33,-80.09 120.06,-83.71 129.46,-87.2"/>
<polygon fill="black" stroke="black" points="128.5,-90.58 139.1,-90.78 130.94,-84.02 128.5,-90.58"/>
</g>
<!-- core -->
<g id="node2" class="node">
<title>core</title>
<ellipse fill="none" stroke="black" cx="177.34" cy="-62" rx="30.59" ry="18"/>
<text text-anchor="middle" x="177.34" y="-58.3" font-family="Times,serif" font-size="14.00">core</text>
</g>
<!-- core&#45;&gt;core&#45;headers -->
<g id="edge2" class="edge">
<title>core&#45;&gt;core&#45;headers</title>
<path fill="none" stroke="black" d="M177.34,-80.08C177.34,-80.24 177.34,-80.4 177.34,-80.56"/>
<polygon fill="black" stroke="black" points="173.84,-77.8 177.34,-87.8 180.84,-77.8 173.84,-77.8"/>
</g>
<!-- main -->
<g id="node4" class="node">
<title>main</title>
<ellipse fill="none" stroke="black" cx="177.34" cy="-18" rx="33.6" ry="18"/>
<text text-anchor="middle" x="177.34" y="-14.3" font-family="Times,serif" font-size="14.00">main</text>
</g>
<!-- main&#45;&gt;persistence -->
<g id="edge1" class="edge">
<title>main&#45;&gt;persistence</title>
<path fill="none" stroke="black" d="M150.28,-29.06C138.51,-33.43 124.38,-38.69 111,-43.66"/>
<polygon fill="black" stroke="black" points="109.6,-40.45 101.44,-47.21 112.04,-47.01 109.6,-40.45"/>
</g>
<!-- main&#45;&gt;core -->
<g id="edge5" class="edge">
<title>main&#45;&gt;core</title>
<path fill="none" stroke="black" d="M177.34,-36.08C177.34,-36.24 177.34,-36.4 177.34,-36.56"/>
<polygon fill="black" stroke="black" points="173.84,-33.8 177.34,-43.8 180.84,-33.8 173.84,-33.8"/>
</g>
<!-- delivery -->
<g id="node5" class="node">
<title>delivery</title>
<ellipse fill="none" stroke="black" cx="274.34" cy="-62" rx="48.19" ry="18"/>
<text text-anchor="middle" x="274.34" y="-58.3" font-family="Times,serif" font-size="14.00">delivery</text>
</g>
<!-- main&#45;&gt;delivery -->
<g id="edge3" class="edge">
<title>main&#45;&gt;delivery</title>
<path fill="none" stroke="black" d="M202.83,-30.04C212.64,-34.28 224.09,-39.24 234.91,-43.93"/>
<polygon fill="black" stroke="black" points="233.64,-47.19 244.21,-47.95 236.42,-40.76 233.64,-47.19"/>
</g>
<!-- delivery&#45;&gt;core&#45;headers -->
<g id="edge6" class="edge">
<title>delivery&#45;&gt;core&#45;headers</title>
<path fill="none" stroke="black" d="M244.18,-76.06C236.83,-79.24 228.82,-82.71 220.97,-86.11"/>
<polygon fill="black" stroke="black" points="219.34,-83 211.55,-90.19 222.12,-89.43 219.34,-83"/>
</g>
</g>
</svg>
