<?xml version="1.0" encoding="UTF-8" standalone="no"?>
<!DOCTYPE svg PUBLIC "-//W3C//DTD SVG 1.1//EN"
 "http://www.w3.org/Graphics/SVG/1.1/DTD/svg11.dtd">
<!-- Generated by graphviz version 3.0.0 (0)
 -->
<!-- Title: project Pages: 1 -->
<svg width="250pt" height="132pt"
 viewBox="0.00 0.00 250.44 132.00" xmlns="http://www.w3.org/2000/svg" xmlns:xlink="http://www.w3.org/1999/xlink">
<g id="graph0" class="graph" transform="scale(1 1) rotate(0) translate(4 128)">
<title>project</title>
<polygon fill="white" stroke="transparent" points="-4,4 -4,-128 246.44,-128 246.44,4 -4,4"/>
<!-- persistence -->
<g id="node1" class="node">
<title>persistence</title>
<ellipse fill="none" stroke="black" cx="64.34" cy="-62" rx="64.19" ry="18"/>
<text text-anchor="middle" x="64.34" y="-58.3" font-family="Times,serif" font-size="14.00">persistence</text>
</g>
<!-- core -->
<g id="node2" class="node">
<title>core</title>
<ellipse fill="none" stroke="black" cx="129.34" cy="-106" rx="30.59" ry="18"/>
<text text-anchor="middle" x="129.34" y="-102.3" font-family="Times,serif" font-size="14.00">core</text>
</g>
<!-- persistence&#45;&gt;core -->
<g id="edge4" class="edge">
<title>persistence&#45;&gt;core</title>
<path fill="none" stroke="black" d="M88.92,-78.88C92.83,-81.4 96.9,-84.03 100.88,-86.61"/>
<polygon fill="black" stroke="black" points="99.09,-89.62 109.39,-92.1 102.89,-83.74 99.09,-89.62"/>
</g>
<!-- main -->
<g id="node3" class="node">
<title>main</title>
<ellipse fill="none" stroke="black" cx="129.34" cy="-18" rx="33.6" ry="18"/>
<text text-anchor="middle" x="129.34" y="-14.3" font-family="Times,serif" font-size="14.00">main</text>
</g>
<!-- main&#45;&gt;persistence -->
<g id="edge1" class="edge">
<title>main&#45;&gt;persistence</title>
<path fill="none" stroke="black" d="M108.78,-32.29C105.08,-34.68 101.14,-37.22 97.2,-39.77"/>
<polygon fill="black" stroke="black" points="95.14,-36.93 88.64,-45.3 98.94,-42.81 95.14,-36.93"/>
</g>
<!-- delivery -->
<g id="node4" class="node">
<title>delivery</title>
<ellipse fill="none" stroke="black" cx="194.34" cy="-62" rx="48.19" ry="18"/>
<text text-anchor="middle" x="194.34" y="-58.3" font-family="Times,serif" font-size="14.00">delivery</text>
</g>
<!-- main&#45;&gt;delivery -->
<g id="edge2" class="edge">
<title>main&#45;&gt;delivery</title>
<path fill="none" stroke="black" d="M149.91,-32.29C153.89,-34.86 158.14,-37.6 162.38,-40.34"/>
<polygon fill="black" stroke="black" points="160.67,-43.41 170.97,-45.9 164.47,-37.53 160.67,-43.41"/>
</g>
<!-- delivery&#45;&gt;core -->
<g id="edge3" class="edge">
<title>delivery&#45;&gt;core</title>
<path fill="none" stroke="black" d="M171.24,-77.93C166.89,-80.74 162.28,-83.72 157.78,-86.62"/>
<polygon fill="black" stroke="black" points="155.85,-83.71 149.35,-92.07 159.65,-89.58 155.85,-83.71"/>
</g>
</g>
</svg>
