<?xml version="1.0" encoding="UTF-8" standalone="no"?>
<!DOCTYPE svg PUBLIC "-//W3C//DTD SVG 1.1//EN"
 "http://www.w3.org/Graphics/SVG/1.1/DTD/svg11.dtd">
<!-- Generated by graphviz version 3.0.0 (0)
 -->
<!-- Title: project Pages: 1 -->
<svg width="426pt" height="176pt"
 viewBox="0.00 0.00 426.18 176.00" xmlns="http://www.w3.org/2000/svg" xmlns:xlink="http://www.w3.org/1999/xlink">
<g id="graph0" class="graph" transform="scale(1 1) rotate(0) translate(4 172)">
<title>project</title>
<polygon fill="white" stroke="transparent" points="-4,4 -4,-172 422.18,-172 422.18,4 -4,4"/>
<!-- domain -->
<g id="node1" class="node">
<title>domain</title>
<ellipse fill="none" stroke="black" cx="238.34" cy="-150" rx="44.69" ry="18"/>
<text text-anchor="middle" x="238.34" y="-146.3" font-family="Times,serif" font-size="14.00">domain</text>
</g>
<!-- core&#45;dependency&#45;headers -->
<g id="node2" class="node">
<title>core&#45;dependency&#45;headers</title>
<ellipse fill="none" stroke="black" cx="129.34" cy="-106" rx="129.18" ry="18"/>
<text text-anchor="middle" x="129.34" y="-102.3" font-family="Times,serif" font-size="14.00">core&#45;dependency&#45;headers</text>
</g>
<!-- core&#45;dependency&#45;headers&#45;&gt;domain -->
<g id="edge4" class="edge">
<title>core&#45;dependency&#45;headers&#45;&gt;domain</title>
<path fill="none" stroke="black" d="M171.17,-123.12C179.81,-126.45 188.89,-129.95 197.49,-133.26"/>
<polygon fill="black" stroke="black" points="196.36,-136.58 206.95,-136.9 198.88,-130.04 196.36,-136.58"/>
</g>
<!-- persistence -->
<g id="node3" class="node">
<title>persistence</title>
<ellipse fill="none" stroke="black" cx="133.34" cy="-62" rx="64.19" ry="18"/>
<text text-anchor="middle" x="133.34" y="-58.3" font-family="Times,serif" font-size="14.00">persistence</text>
</g>
<!-- persistence&#45;&gt;core&#45;dependency&#45;headers -->
<g id="edge5" class="edge">
<title>persistence&#45;&gt;core&#45;dependency&#45;headers</title>
<path fill="none" stroke="black" d="M131.71,-80.08C131.7,-80.24 131.68,-80.4 131.67,-80.56"/>
<polygon fill="black" stroke="black" points="128.44,-77.51 130.98,-87.8 135.41,-78.17 128.44,-77.51"/>
</g>
<!-- core -->
<g id="node4" class="node">
<title>core</title>
<ellipse fill="none" stroke="black" cx="248.34" cy="-62" rx="30.59" ry="18"/>
<text text-anchor="middle" x="248.34" y="-58.3" font-family="Times,serif" font-size="14.00">core</text>
</g>
<!-- core&#45;&gt;core&#45;dependency&#45;headers -->
<g id="edge9" class="edge">
<title>core&#45;&gt;core&#45;dependency&#45;headers</title>
<path fill="none" stroke="black" d="M224.02,-73.18C218.25,-75.5 212.1,-77.9 206.34,-80 200.75,-82.03 194.91,-84.08 189.06,-86.07"/>
<polygon fill="black" stroke="black" points="187.59,-82.87 179.22,-89.37 189.81,-89.51 187.59,-82.87"/>
</g>
<!-- core&#45;headers -->
<g id="node5" class="node">
<title>core&#45;headers</title>
<ellipse fill="none" stroke="black" cx="347.34" cy="-106" rx="70.69" ry="18"/>
<text text-anchor="middle" x="347.34" y="-102.3" font-family="Times,serif" font-size="14.00">core&#45;headers</text>
</g>
<!-- core&#45;&gt;core&#45;headers -->
<g id="edge2" class="edge">
<title>core&#45;&gt;core&#45;headers</title>
<path fill="none" stroke="black" d="M272.3,-73.17C281.5,-77.07 292.33,-81.66 302.84,-86.12"/>
<polygon fill="black" stroke="black" points="301.79,-89.48 312.36,-90.16 304.52,-83.03 301.79,-89.48"/>
</g>
<!-- core&#45;headers&#45;&gt;domain -->
<g id="edge7" class="edge">
<title>core&#45;headers&#45;&gt;domain</title>
<path fill="none" stroke="black" d="M310.13,-121.34C300.13,-125.19 289.26,-129.38 279.08,-133.3"/>
<polygon fill="black" stroke="black" points="277.65,-130.1 269.58,-136.96 280.17,-136.63 277.65,-130.1"/>
</g>
<!-- main -->
<g id="node6" class="node">
<title>main</title>
<ellipse fill="none" stroke="black" cx="248.34" cy="-18" rx="33.6" ry="18"/>
<text text-anchor="middle" x="248.34" y="-14.3" font-family="Times,serif" font-size="14.00">main</text>
</g>
<!-- main&#45;&gt;persistence -->
<g id="edge1" class="edge">
<title>main&#45;&gt;persistence</title>
<path fill="none" stroke="black" d="M221.09,-28.95C208.89,-33.41 194.15,-38.79 180.27,-43.86"/>
<polygon fill="black" stroke="black" points="179.03,-40.59 170.84,-47.3 181.43,-47.16 179.03,-40.59"/>
</g>
<!-- main&#45;&gt;core -->
<g id="edge6" class="edge">
<title>main&#45;&gt;core</title>
<path fill="none" stroke="black" d="M248.34,-36.08C248.34,-36.24 248.34,-36.4 248.34,-36.56"/>
<polygon fill="black" stroke="black" points="244.84,-33.8 248.34,-43.8 251.84,-33.8 244.84,-33.8"/>
</g>
<!-- delivery -->
<g id="node7" class="node">
<title>delivery</title>
<ellipse fill="none" stroke="black" cx="346.34" cy="-62" rx="48.19" ry="18"/>
<text text-anchor="middle" x="346.34" y="-58.3" font-family="Times,serif" font-size="14.00">delivery</text>
</g>
<!-- main&#45;&gt;delivery -->
<g id="edge3" class="edge">
<title>main&#45;&gt;delivery</title>
<path fill="none" stroke="black" d="M273.83,-29.93C283.74,-34.17 295.34,-39.14 306.31,-43.85"/>
<polygon fill="black" stroke="black" points="305.17,-47.16 315.74,-47.89 307.93,-40.73 305.17,-47.16"/>
</g>
<!-- delivery&#45;&gt;core&#45;headers -->
<g id="edge8" class="edge">
<title>delivery&#45;&gt;core&#45;headers</title>
<path fill="none" stroke="black" d="M346.75,-80.08C346.75,-80.24 346.75,-80.4 346.76,-80.56"/>
<polygon fill="black" stroke="black" points="343.19,-77.88 346.93,-87.8 350.19,-77.72 343.19,-77.88"/>
</g>
</g>
</svg>
